<svg width="26" height="19" viewBox="0 0 26 19" fill="none" xmlns="http://www.w3.org/2000/svg">
<path d="M21.2727 11.875V2.375C21.2727 1.06875 20.2091 0 18.9091 0H2.36364C1.06364 0 0 1.06875 0 2.375V11.875C0 13.1813 1.06364 14.25 2.36364 14.25H18.9091C20.2091 14.25 21.2727 13.1813 21.2727 11.875ZM18.9091 11.875H2.36364V2.375H18.9091V11.875ZM10.6364 3.5625C8.67455 3.5625 7.09091 5.15375 7.09091 7.125C7.09091 9.09625 8.67455 10.6875 10.6364 10.6875C12.5982 10.6875 14.1818 9.09625 14.1818 7.125C14.1818 5.15375 12.5982 3.5625 10.6364 3.5625ZM26 3.5625V16.625C26 17.9313 24.9364 19 23.6364 19H3.54545C3.54545 17.8125 3.54545 17.9313 3.54545 16.625H23.6364V3.5625C24.9364 3.5625 24.8182 3.5625 26 3.5625Z" fill="#C93829"/>
</svg>
