<svg width="28" height="23" viewBox="0 0 28 23" fill="none" xmlns="http://www.w3.org/2000/svg">
<path d="M25.4545 20.4444H28V23H0V20.4444H2.54545V1.27778C2.54545 0.93889 2.67955 0.613882 2.91823 0.374252C3.15691 0.134623 3.48063 0 3.81818 0H16.5455C16.883 0 17.2067 0.134623 17.4454 0.374252C17.6841 0.613882 17.8182 0.93889 17.8182 1.27778V20.4444H22.9091V10.2222H20.3636V7.66667H24.1818C24.5194 7.66667 24.8431 7.80129 25.0818 8.04092C25.3205 8.28055 25.4545 8.60556 25.4545 8.94444V20.4444ZM5.09091 2.55556V20.4444H15.2727V2.55556H5.09091ZM7.63636 10.2222H12.7273V12.7778H7.63636V10.2222ZM7.63636 5.11111H12.7273V7.66667H7.63636V5.11111Z" fill="#C93829"/>
</svg>
