<svg width="28" height="26" viewBox="0 0 28 26" fill="none" xmlns="http://www.w3.org/2000/svg">
<path d="M16.4 21C20.9254 21 23.1883 21 24.5941 19.6087C26 18.2176 26 15.9783 26 11.5C26 7.02165 26 4.78249 24.5941 3.39124C23.1883 2 20.9254 2 16.4 2H11.6C7.07451 2 4.81178 2 3.40588 3.39124C2 4.78249 2 7.02165 2 11.5C2 15.9783 2 18.2176 3.40588 19.6087C4.1897 20.3844 5.23987 20.7276 6.8 20.8795" stroke="#C93829" stroke-width="3" stroke-linecap="round" stroke-linejoin="round"/>
<path d="M12 7.8544C12.5 6.61814 13 6 14 6C15.2461 6 16 7.23626 16 8.47252C16 9.70879 15.5 9.76375 14 11V12.25M14 15.375V16" stroke="#C93829" stroke-width="3" stroke-linecap="round"/>
<path d="M16 20.8895C14.5533 20.8895 12.9606 21.5183 11.5056 22.3318C9.16871 23.6382 8.00025 24.2915 7.42445 23.8753C6.84865 23.459 6.95763 22.1682 7.17561 19.5866L7.22515 19" stroke="#C93829" stroke-width="3" stroke-linecap="round"/>
</svg>
