<svg width="32" height="32" viewBox="0 0 32 32" fill="none" xmlns="http://www.w3.org/2000/svg">
<path d="M11.9998 26.6667H7.99984C5.05432 26.6667 2.6665 24.2788 2.6665 21.3333V9.33333C2.6665 6.38781 5.05432 4 7.99984 4H22.6665C25.612 4 27.9998 6.38781 27.9998 9.33333V13.3333" stroke="#C93829" stroke-width="3" stroke-linecap="round" stroke-linejoin="round"/>
<path d="M10.6665 2.66663V5.33329" stroke="#C93829" stroke-width="2" stroke-linecap="round" stroke-linejoin="round"/>
<path d="M20 2.66663V5.33329" stroke="#C93829" stroke-width="2" stroke-linecap="round" stroke-linejoin="round"/>
<path d="M2.6665 10.6666H27.9998" stroke="#C93829" stroke-width="3" stroke-linecap="round" stroke-linejoin="round"/>
<path d="M24.6665 20.8572L22.6665 22.8572" stroke="#C93829" stroke-width="2" stroke-linecap="round" stroke-linejoin="round"/>
<path d="M22.6667 29.3333C26.3486 29.3333 29.3333 26.3486 29.3333 22.6667C29.3333 18.9848 26.3486 16 22.6667 16C18.9848 16 16 18.9848 16 22.6667C16 26.3486 18.9848 29.3333 22.6667 29.3333Z" stroke="#C93829" stroke-width="3" stroke-linecap="round" stroke-linejoin="round"/>
</svg>
