<svg width="346" height="94" viewBox="0 0 346 94" fill="none" xmlns="http://www.w3.org/2000/svg">
<mask id="path-1-inside-1_968_3171" fill="white">
<path fill-rule="evenodd" clip-rule="evenodd" d="M32.5 0C14.8269 0 0.5 14.3269 0.5 32V62C0.5 79.6731 14.8269 94 32.5 94H313.687V93.9991H345.5C329.003 93.9991 315.422 81.5164 313.687 65.4811V32C313.687 14.3269 299.36 0 281.687 0H32.5Z"/>
</mask>
<path fill-rule="evenodd" clip-rule="evenodd" d="M32.5 0C14.8269 0 0.5 14.3269 0.5 32V62C0.5 79.6731 14.8269 94 32.5 94H313.687V93.9991H345.5C329.003 93.9991 315.422 81.5164 313.687 65.4811V32C313.687 14.3269 299.36 0 281.687 0H32.5Z" fill="#FEF251"/>
<path d="M313.687 94V96H315.687V94H313.687ZM313.687 93.9991V91.9991H311.687V93.9991H313.687ZM313.687 65.4811H311.687V65.589L311.699 65.6963L313.687 65.4811ZM2.5 32C2.5 15.4315 15.9315 2 32.5 2V-2C13.7223 -2 -1.5 13.2223 -1.5 32H2.5ZM2.5 62V32H-1.5V62H2.5ZM32.5 92C15.9314 92 2.5 78.5685 2.5 62H-1.5C-1.5 80.7777 13.7223 96 32.5 96V92ZM313.687 92H32.5V96H313.687V92ZM311.687 93.9991V94H315.687V93.9991H311.687ZM345.5 91.9991H313.687V95.9991H345.5V91.9991ZM311.699 65.6963C313.543 82.7359 327.971 95.9991 345.5 95.9991V91.9991C330.036 91.9991 317.302 80.2969 315.676 65.266L311.699 65.6963ZM311.687 32V65.4811H315.687V32H311.687ZM281.687 2C298.256 2 311.687 15.4315 311.687 32H315.687C315.687 13.2223 300.465 -2 281.687 -2V2ZM32.5 2H281.687V-2H32.5V2Z" fill="#FAFAFA" fill-opacity="0.5" mask="url(#path-1-inside-1_968_3171)"/>
</svg>
